<mxfile host="app.diagrams.net" modified="2023-11-25T11:55:04.615Z" agent="Mozilla/5.0 (Macintosh; Intel Mac OS X 10_15_7) AppleWebKit/537.36 (KHTML, like Gecko) Chrome/119.0.0.0 Safari/537.36" version="22.1.4" etag="gCjAiXkK8gt4W-74CNmD" type="github">
  <diagram name="第 1 页" id="0pftqQFE5pUVBlN7ndaH">
    <mxGraphModel>
      <root>
        <mxCell id="0" />
        <mxCell id="1" parent="0" />
      </root>
    </mxGraphModel>
  </diagram>
</mxfile>
